<svg width="233" height="234" viewBox="0 0 233 234" fill="none" xmlns="http://www.w3.org/2000/svg">
<path d="M58.95 143.45C68.24 162.04 50.82 158.71 43.7 165.4C41.91 167.09 39.51 168.73 40.33 171.58C41.28 174.83 44.46 175.22 47.23 175.58C50.7 176.04 59.72 174.43 66.9 172.7C69.46 172.28 72.03 171.51 74.71 170.51C74.87 170.46 75.04 170.39 75.21 170.33C72.83 175.69 57.64 180.96 53.85 183.41C49.7 186.1 49.64 188.39 53.91 190.62C59.47 193.52 65.33 194.6 71.71 193.47C77.89 191.93 83.08 189.98 87.48 187.97C91.66 186.37 95.48 183.94 99.44 181.44C99.82 181.2 100.21 180.95 100.6 180.71C100.63 180.85 100.65 180.99 100.68 181.13C101.53 185.76 103.17 197.69 105.3 200.76C109.7 207.13 118.69 208.24 124.04 203.08C126.9 200.33 127.79 187.8 128.67 184.1C129.53 180.47 130.23 179.9 133.54 182.35C133.77 182.52 134.01 182.69 134.24 182.85C137.73 185.36 141.33 187.33 145.06 188.56C155.13 192.62 167.48 194.75 175.63 190.95C177.41 190.12 179.72 189.46 179.9 187.19C180.1 184.65 177.77 183.69 175.93 182.57C172.31 180.38 158.06 175.27 156.05 170.25C156.21 170.3 156.38 170.35 156.54 170.4C160.76 171.73 164.75 173.01 168.84 173.06C175.42 174.24 182.42 175.16 185.28 174.82C188.21 174.47 191.69 174.37 192.82 171.02C193.92 167.76 191.13 166 188.99 164.12C183.25 159.09 168.12 160.92 171.8 146.87C173.48 143.28 175.53 139.82 177.66 136.46C186.58 122.39 191.36 107.53 188.2 90.57C183.97 67.86 171.88 51.55 150.25 43.04C132.15 35.92 113.36 35.44 94.43 39.08C53.22 47.03 38.98 85.9 45.03 114.97C45.1 115.3 45.17 115.64 45.25 115.97C47.65 126.21 53.76 134.58 58.95 143.45ZM232.66 19.64V214.6C232.66 224.95 224.27 233.34 213.92 233.34H18.95C8.60001 233.34 0.210022 224.95 0.210022 214.6V19.64C0.210022 9.28001 8.60001 0.890015 18.95 0.890015H213.92C224.27 0.890015 232.66 9.28001 232.66 19.64Z" fill="#9B06D1"/>
<path d="M161.21 89.34C161.91 89.93 162.91 90.36 162.89 91.51C161.81 92.53 160.42 92.37 159.66 91.78C158.43 90.83 156.02 91.86 155.8 89.51C155.76 89.03 156.3 88.18 156.76 88.01C158.5 87.38 159.93 88.24 161.21 89.34Z" fill="#9B06D1"/>
<path d="M130.16 116.88C127.93 122.36 129.51 128.14 134.12 131.49C138.66 134.78 144.32 134.53 148.78 130.84C153.06 127.29 154.41 121.84 152.2 116.98C149.9 111.91 144.38 108.96 138.74 110.03C137.24 110.32 133.37 110.05 137.11 113.3C138.4 114.42 137.95 115.69 136.86 116.73C135.74 117.78 134.49 117.86 133.35 116.78C132.67 116.14 132.13 115.37 131.46 114.57C130.96 115.44 130.47 116.12 130.16 116.88ZM141.27 134.89C132.74 134.94 125.23 127.4 125.36 118.92C125.49 110.58 132.82 103.32 141.14 103.29C149.55 103.26 156.82 110.38 156.97 118.8C157.14 127.46 149.94 134.84 141.27 134.89Z" fill="white"/>
<path d="M131.46 114.57C132.13 115.37 132.67 116.14 133.35 116.78C134.49 117.86 135.74 117.78 136.86 116.73C137.95 115.69 138.4 114.42 137.11 113.3C133.37 110.05 137.24 110.32 138.74 110.03C144.38 108.96 149.9 111.91 152.2 116.98C154.41 121.84 153.06 127.29 148.78 130.84C144.32 134.53 138.66 134.78 134.12 131.49C129.51 128.14 127.93 122.36 130.16 116.88C130.47 116.12 130.96 115.44 131.46 114.57Z" fill="#9B06D1"/>
<path d="M112.35 153.08C109.58 152.95 106.53 151.69 105.16 147.94C104.85 147.1 104.7 145.94 105.57 145.19C106.28 144.56 107.23 144.7 107.85 145.25C111.42 148.4 115.1 147.4 118.81 145.63C119.85 145.13 121.07 144.3 121.87 145.51C122.59 146.6 122.38 148.02 121.46 149.18C119.37 151.8 116.65 153.1 112.35 153.08Z" fill="#9B06D1"/>
<path d="M98.4 129.25C102.38 124.59 101.95 117.89 97.66 113.44C93.52 109.14 87.43 108.71 82.01 112.46C84.22 113.4 85.8 114.91 83.94 117.1C81.85 119.56 80.21 117.3 78.47 115.87C75.56 123.17 77.3 128.68 83.01 132.21C88.45 135.58 94.87 133.38 98.4 129.25ZM87.58 102.07C96.94 101.98 104.87 109.73 104.9 119C104.94 128.31 97.16 136.03 87.76 136C78.01 135.97 70.95 128.78 71 118.94C71.05 109.48 78.25 102.15 87.58 102.07Z" fill="white"/>
<path d="M97.66 113.44C101.95 117.89 102.38 124.59 98.4 129.25C94.87 133.38 88.4501 135.58 83.0101 132.21C77.3001 128.68 75.56 123.17 78.47 115.87C80.21 117.3 81.85 119.56 83.94 117.1C85.8 114.91 84.2201 113.4 82.0101 112.46C87.4301 108.71 93.52 109.14 97.66 113.44Z" fill="#9B06D1"/>
<path d="M70.03 93.7001C69.58 93.7901 69.13 93.85 68.24 93.99C68.29 93.19 68.18 92.75 68.35 92.56C69.86 90.86 71.52 88.9501 73.98 89.5101C76.01 89.9801 75.32 92.36 72.88 93.05C71.94 93.31 70.99 93.4901 70.03 93.7001Z" fill="#9B06D1"/>
</svg>
