<svg width="152" height="172" viewBox="0 0 152 172" fill="none" xmlns="http://www.w3.org/2000/svg">
<path d="M134.57 155.7C126.42 159.5 114.07 157.37 104 153.31C110.48 155.45 117.32 155.38 124.62 151.98C126.4 151.16 128.71 150.5 128.89 148.22C129.1 145.68 126.76 144.73 124.92 143.61C121.3 141.41 117 140.02 114.99 135C117 140.02 131.25 145.13 134.87 147.32C136.71 148.44 139.04 149.4 138.84 151.94C138.66 154.21 136.35 154.87 134.57 155.7Z" fill="#F087CC"/>
<path d="M63.4856 157.36C67.8856 163.72 76.8756 164.83 82.2256 159.68C85.0856 156.93 86.6256 153.35 87.5056 149.65C86.6256 153.35 85.7356 165.88 82.8756 168.63C77.5256 173.79 68.5356 172.68 64.1356 166.31C62.0056 163.24 60.3656 151.31 59.5156 146.68C60.3256 150.77 61.3556 154.29 63.4856 157.36Z" fill="#F087CC"/>
<path d="M11.6856 147.96C15.4756 145.51 30.6656 140.24 33.0456 134.88C30.6656 140.24 25.9356 141.51 22.1456 143.97C17.9856 146.66 17.9256 148.94 22.1956 151.17C27.7656 154.08 33.6156 155.16 39.9956 154.02C41.8556 153.69 43.6156 153.17 45.3156 152.52C40.9156 154.53 35.7256 156.48 29.5456 158.02C23.1656 159.15 17.3056 158.07 11.7456 155.17C7.47561 152.94 7.53561 150.65 11.6856 147.96Z" fill="#F087CC"/>
<path d="M57.5774 74.6283C61.8674 79.0783 62.2974 85.7783 58.3174 90.4383C54.7874 94.5683 48.3674 96.7683 42.9274 93.3983C37.2174 89.8683 35.4774 84.3583 38.3874 77.0583C40.1274 78.4883 41.7674 80.7483 43.8574 78.2883C45.7174 76.0983 44.1374 74.5883 41.9274 73.6483C47.3474 69.8983 53.4374 70.3283 57.5774 74.6283Z" fill="#F087CC"/>
<path d="M29.8357 82.0896C29.7857 91.9296 36.8457 99.1196 46.5957 99.1496C55.9957 99.1796 63.7757 91.4596 63.7357 82.1496C63.7057 72.8796 55.7757 65.1296 46.4157 65.2196C37.0857 65.2996 29.8857 72.6296 29.8357 82.0896ZM84.1957 82.0696C84.0657 90.5496 91.5757 98.0896 100.106 98.0396C108.776 97.9896 115.976 90.6096 115.806 81.9496C115.656 73.5296 108.386 66.4096 99.9757 66.4396C91.6557 66.4696 84.3257 73.7296 84.1957 82.0696ZM53.2657 2.22963C72.1957 -1.41037 90.9857 -0.930367 109.086 6.18963C130.716 14.6996 142.806 31.0096 147.036 53.7196C150.196 70.6796 145.416 85.5396 136.496 99.6096C134.366 102.97 132.316 106.43 130.636 110.02C127.396 116.96 128.216 120.37 133.956 125.4C136.096 127.28 138.886 129.03 137.786 132.3C136.656 135.64 133.176 135.74 130.246 136.09C129.386 136.19 128.526 136.23 127.676 136.21C122.676 135.32 117.906 134.28 115.376 133.55C115.216 133.5 115.046 133.45 114.886 133.4C116.896 138.42 121.196 139.81 124.816 142.01C126.656 143.13 128.996 144.08 128.786 146.62C128.606 148.9 126.296 149.56 124.516 150.38C117.216 153.78 110.376 153.85 103.896 151.71C99.7557 150.04 95.9957 148.04 93.0757 146C92.8457 145.84 92.6057 145.67 92.3757 145.5C89.0657 143.05 88.3657 143.62 87.5057 147.25C86.6257 150.95 85.0857 154.53 82.2257 157.28C76.8757 162.43 67.8857 161.32 63.4857 154.96C61.3557 151.89 60.3257 148.37 59.5157 144.28C59.4857 144.14 59.4657 144 59.4357 143.86C59.0457 144.1 58.6557 144.35 58.2757 144.59C55.1157 146.55 51.2157 148.88 46.3157 151.12C44.6157 151.77 42.8557 152.29 40.9957 152.62C34.6157 153.76 28.7657 152.68 23.1957 149.77C18.9257 147.54 18.9857 145.26 23.1457 142.57C26.9357 140.11 31.6657 138.84 34.0457 133.48C33.8757 133.54 33.7057 133.61 33.5457 133.66C31.7357 134.3 28.9157 135.09 25.7357 135.85C23.3157 136.26 20.9157 136.36 18.4757 136.03C15.7157 135.66 12.5257 135.27 11.5857 132.03C10.7557 129.18 13.1557 127.54 14.9557 125.85C22.0757 119.16 22.7957 115.17 17.7857 106.6C13.1957 97.4096 6.51567 89.3396 4.08567 79.1196C4.00567 78.7896 3.93567 78.4496 3.86567 78.1196C-2.18433 49.0496 12.0557 10.1796 53.2657 2.22963ZM63.9957 111.09C65.3657 114.84 68.4157 116.1 71.1857 116.23C75.4857 116.25 78.2057 114.95 80.2957 112.33C81.2157 111.17 81.4257 109.75 80.7057 108.66C79.9057 107.45 78.6857 108.28 77.6457 108.78C73.9357 110.55 70.2557 111.55 66.6857 108.4C66.0657 107.85 65.1157 107.71 64.4057 108.34C63.5357 109.09 63.6857 110.25 63.9957 111.09ZM121.726 54.6596C121.746 53.5096 120.746 53.0796 120.046 52.4896C118.766 51.3896 117.336 50.5296 115.596 51.1596C115.136 51.3296 114.596 52.1796 114.636 52.6596C114.856 55.0096 117.266 53.9796 118.496 54.9296C119.256 55.5196 120.646 55.6796 121.726 54.6596ZM31.7157 56.1996C34.1557 55.5096 34.8457 53.1296 32.8157 52.6596C30.3557 52.0996 28.6957 54.0096 27.1857 55.7096C27.0157 55.8996 27.1257 56.3396 27.0757 57.1396C27.9657 56.9996 28.4157 56.9396 28.8657 56.8496C29.8257 56.6396 30.7757 56.4596 31.7157 56.1996Z" fill="#F087CC"/>
<path d="M91.3774 75.7583C92.0474 76.5583 92.5874 77.3283 93.2674 77.9683C94.4074 79.0483 95.6574 78.9683 96.7774 77.9183C97.8674 76.8783 98.3174 75.6083 97.0274 74.4883C93.2874 71.2383 97.1574 71.5083 98.6574 71.2183C104.297 70.1483 109.817 73.0983 112.117 78.1683C114.327 83.0283 112.977 88.4783 108.697 92.0283C104.237 95.7183 98.5774 95.9683 94.0374 92.6783C89.4274 89.3283 87.8474 83.5483 90.0774 78.0683C90.3874 77.3083 90.8774 76.6283 91.3774 75.7583Z" fill="#F087CC"/>
<path d="M19.4756 135.43C21.9156 135.76 24.3156 135.66 26.7356 135.25C19.5556 136.98 10.5356 138.59 7.06559 138.13C4.29559 137.77 1.11559 137.38 0.165585 134.13C-0.654415 131.28 1.74559 129.64 3.53559 127.95C10.6556 121.26 28.0756 124.59 18.7856 106C23.7956 114.57 23.0756 118.56 15.9556 125.25C14.1556 126.94 11.7556 128.58 12.5856 131.43C13.5256 134.67 16.7156 135.06 19.4756 135.43Z" fill="#F087CC"/>
<path d="M129.57 136.07C132.5 135.72 135.98 135.62 137.11 132.28C138.21 129.01 135.42 127.26 133.28 125.38C127.54 120.35 126.72 116.94 129.96 110C126.28 124.05 141.41 122.22 147.15 127.25C149.29 129.13 152.08 130.89 150.98 134.15C149.85 137.5 146.37 137.6 143.44 137.95C140.58 138.29 133.58 137.37 127 136.19C127.85 136.21 128.71 136.17 129.57 136.07Z" fill="#F087CC"/>
</svg>
