<svg width="153" height="173" viewBox="0 0 153 173" fill="none" xmlns="http://www.w3.org/2000/svg">
<path d="M64.97 157.68C69.37 164.04 78.36 165.15 83.71 160C86.57 157.25 88.11 153.67 88.99 149.97C88.11 153.67 87.22 166.2 84.36 168.95C79.01 174.11 70.02 173 65.62 166.63C63.49 163.56 61.85 151.63 61 147C61.81 151.09 62.84 154.61 64.97 157.68Z" fill="#CE45FF"/>
<path d="M135.466 157.1C127.316 160.9 114.966 158.77 104.896 154.71C111.376 156.85 118.216 156.78 125.516 153.38C127.296 152.56 129.606 151.9 129.786 149.62C129.996 147.08 127.656 146.13 125.816 145.01C122.196 142.81 117.896 141.42 115.886 136.4C117.896 141.42 132.146 146.53 135.766 148.72C137.606 149.84 139.936 150.8 139.736 153.34C139.556 155.61 137.246 156.27 135.466 157.1Z" fill="#CE45FF"/>
<path d="M13.6856 149.56C17.4756 147.11 32.6656 141.84 35.0456 136.48C32.6656 141.84 27.9356 143.11 24.1456 145.57C19.9856 148.26 19.9256 150.54 24.1956 152.77C29.7656 155.68 35.6156 156.76 41.9956 155.62C43.8556 155.29 45.6156 154.77 47.3156 154.12C42.9156 156.13 37.7256 158.08 31.5456 159.62C25.1656 160.75 19.3056 159.67 13.7456 156.77C9.47561 154.54 9.53561 152.25 13.6856 149.56Z" fill="#CE45FF"/>
<path d="M19.4756 139.03C21.9156 139.36 24.3156 139.26 26.7356 138.85C19.5556 140.58 10.5356 142.19 7.06559 141.73C4.29559 141.37 1.11559 140.98 0.165585 137.73C-0.654415 134.88 1.74559 133.24 3.53559 131.55C10.6556 124.86 28.0756 128.19 18.7856 109.6C23.7956 118.17 23.0756 122.16 15.9556 128.85C14.1556 130.54 11.7556 132.18 12.5856 135.03C13.5256 138.27 16.7156 138.66 19.4756 139.03Z" fill="#CE45FF"/>
<path d="M58.5774 74.6283C62.8674 79.0783 63.2974 85.7783 59.3174 90.4383C55.7874 94.5683 49.3674 96.7683 43.9274 93.3983C38.2174 89.8683 36.4774 84.3583 39.3874 77.0583C41.1274 78.4883 42.7674 80.7483 44.8574 78.2883C46.7174 76.0983 45.1374 74.5883 42.9274 73.6483C48.3474 69.8983 54.4374 70.3283 58.5774 74.6283Z" fill="#CE45FF"/>
<path d="M131.246 139.09C134.176 138.74 137.656 138.64 138.786 135.3C139.886 132.03 137.096 130.28 134.956 128.4C129.216 123.37 128.396 119.96 131.636 113.02C127.956 127.07 143.086 125.24 148.826 130.27C150.966 132.15 153.756 133.91 152.656 137.17C151.526 140.52 148.046 140.62 145.116 140.97C142.256 141.31 135.256 140.39 128.676 139.21C129.526 139.23 130.386 139.19 131.246 139.09Z" fill="#CE45FF"/>
<path d="M30.8357 82.0896C30.7857 91.9296 37.8457 99.1196 47.5957 99.1496C56.9957 99.1796 64.7757 91.4596 64.7357 82.1496C64.7057 72.8796 56.7757 65.1296 47.4157 65.2196C38.0857 65.2996 30.8857 72.6296 30.8357 82.0896ZM85.1957 82.0696C85.0657 90.5496 92.5757 98.0896 101.106 98.0396C109.776 97.9896 116.976 90.6096 116.806 81.9496C116.656 73.5296 109.386 66.4096 100.976 66.4396C92.6557 66.4696 85.3257 73.7296 85.1957 82.0696ZM54.2657 2.22963C73.1957 -1.41037 91.9857 -0.930367 110.086 6.18963C131.716 14.6996 143.806 31.0096 148.036 53.7196C151.196 70.6796 146.416 85.5396 137.496 99.6096C135.366 102.97 133.316 106.43 131.636 110.02C128.396 116.96 129.216 120.37 134.956 125.4C137.096 127.28 139.886 129.03 138.786 132.3C137.656 135.64 134.176 135.74 131.246 136.09C130.386 136.19 129.526 136.23 128.676 136.21C123.676 135.32 118.906 134.28 116.376 133.55C116.216 133.5 116.046 133.45 115.886 133.4C117.896 138.42 122.196 139.81 125.816 142.01C127.656 143.13 129.996 144.08 129.786 146.62C129.606 148.9 127.296 149.56 125.516 150.38C118.216 153.78 111.376 153.85 104.896 151.71C100.756 150.04 96.9957 148.04 94.0757 146C93.8457 145.84 93.6057 145.67 93.3757 145.5C90.0657 143.05 89.3657 143.62 88.5057 147.25C87.6257 150.95 86.0857 154.53 83.2257 157.28C77.8757 162.43 68.8857 161.32 64.4857 154.96C62.3557 151.89 61.3257 148.37 60.5157 144.28C60.4857 144.14 60.4657 144 60.4357 143.86C60.0457 144.1 59.6557 144.35 59.2757 144.59C56.1157 146.55 52.2157 148.88 47.3157 151.12C45.6157 151.77 43.8557 152.29 41.9957 152.62C35.6157 153.76 29.7657 152.68 24.1957 149.77C19.9257 147.54 19.9857 145.26 24.1457 142.57C27.9357 140.11 32.6657 138.84 35.0457 133.48C34.8757 133.54 34.7057 133.61 34.5457 133.66C32.7357 134.3 29.9157 135.09 26.7357 135.85C24.3157 136.26 21.9157 136.36 19.4757 136.03C16.7157 135.66 13.5257 135.27 12.5857 132.03C11.7557 129.18 14.1557 127.54 15.9557 125.85C23.0757 119.16 23.7957 115.17 18.7857 106.6C14.1957 97.4096 7.51567 89.3396 5.08567 79.1196C5.00567 78.7896 4.93567 78.4496 4.86567 78.1196C-1.18433 49.0496 13.0557 10.1796 54.2657 2.22963ZM64.9957 111.09C66.3657 114.84 69.4157 116.1 72.1857 116.23C76.4857 116.25 79.2057 114.95 81.2957 112.33C82.2157 111.17 82.4257 109.75 81.7057 108.66C80.9057 107.45 79.6857 108.28 78.6457 108.78C74.9357 110.55 71.2557 111.55 67.6857 108.4C67.0657 107.85 66.1157 107.71 65.4057 108.34C64.5357 109.09 64.6857 110.25 64.9957 111.09ZM122.726 54.6596C122.746 53.5096 121.746 53.0796 121.046 52.4896C119.766 51.3896 118.336 50.5296 116.596 51.1596C116.136 51.3296 115.596 52.1796 115.636 52.6596C115.856 55.0096 118.266 53.9796 119.496 54.9296C120.256 55.5196 121.646 55.6796 122.726 54.6596ZM32.7157 56.1996C35.1557 55.5096 35.8457 53.1296 33.8157 52.6596C31.3557 52.0996 29.6957 54.0096 28.1857 55.7096C28.0157 55.8996 28.1257 56.3396 28.0757 57.1396C28.9657 56.9996 29.4157 56.9396 29.8657 56.8496C30.8257 56.6396 31.7757 56.4596 32.7157 56.1996Z" fill="#CE45FF"/>
<path d="M92.3774 75.7583C93.0474 76.5583 93.5874 77.3283 94.2674 77.9683C95.4074 79.0483 96.6574 78.9683 97.7774 77.9183C98.8674 76.8783 99.3174 75.6083 98.0274 74.4883C94.2874 71.2383 98.1574 71.5083 99.6574 71.2183C105.297 70.1483 110.817 73.0983 113.117 78.1683C115.327 83.0283 113.977 88.4783 109.697 92.0283C105.237 95.7183 99.5774 95.9683 95.0374 92.6783C90.4274 89.3283 88.8474 83.5483 91.0774 78.0683C91.3874 77.3083 91.8774 76.6283 92.3774 75.7583Z" fill="#CE45FF"/>
</svg>
