<?xml version="1.0" encoding="UTF-8"?>
<svg id="Calque_1" data-name="Calque 1" xmlns="http://www.w3.org/2000/svg" viewBox="0 0 153.4 169.99">
  <defs>
    <style>
      .cls-1 {
        fill: #9f4996;
      }
    </style>
  </defs>
  <path class="cls-1" d="M135.71,154.35c-8.15,3.8-20.5,1.67-30.57-2.39,6.48,2.14,13.32,2.07,20.62-1.33,1.78-.82,4.09-1.48,4.27-3.76,.21-2.54-2.13-3.49-3.97-4.61-3.62-2.2-7.92-3.59-9.93-8.61,2.01,5.02,16.26,10.13,19.88,12.32,1.84,1.12,4.17,2.08,3.97,4.62-.18,2.27-2.49,2.93-4.27,3.76Z"/>
  <path class="cls-1" d="M64.73,155.21c4.4,6.36,13.39,7.47,18.74,2.32,2.86-2.75,4.4-6.33,5.28-10.03-.88,3.7-1.77,16.23-4.63,18.98-5.35,5.16-14.34,4.05-18.74-2.32-2.13-3.07-3.77-15-4.62-19.63,.81,4.09,1.84,7.61,3.97,10.68Z"/>
  <path class="cls-1" d="M13.93,146.81c3.79-2.45,18.98-7.72,21.36-13.08-2.38,5.36-7.11,6.63-10.9,9.09-4.16,2.69-4.22,4.97,.05,7.2,5.57,2.91,11.42,3.99,17.8,2.85,1.86-.33,3.62-.85,5.32-1.5-4.4,2.01-9.59,3.96-15.77,5.5-6.38,1.13-12.24,.05-17.8-2.85-4.27-2.23-4.21-4.52-.06-7.21Z"/>
  <path class="cls-1" d="M19.72,136.28c2.44,.33,4.84,.23,7.26-.18-7.18,1.73-16.2,3.34-19.67,2.88-2.77-.36-5.95-.75-6.9-4-.82-2.85,1.58-4.49,3.37-6.18,7.12-6.69,24.54-3.36,15.25-21.95,5.01,8.57,4.29,12.56-2.83,19.25-1.8,1.69-4.2,3.33-3.37,6.18,.94,3.24,4.13,3.63,6.89,4Z"/>
  <path class="cls-1" d="M57.74,76.84c4.29,4.45,4.72,11.15,.74,15.81-3.53,4.13-9.95,6.33-15.39,2.96-5.71-3.53-7.45-9.04-4.54-16.34,1.74,1.43,3.38,3.69,5.47,1.23,1.86-2.19,.28-3.7-1.93-4.64,5.42-3.75,11.51-3.32,15.65,.98Z"/>
  <path class="cls-1" d="M131.49,136.34c2.93-.35,6.41-.45,7.54-3.79,1.1-3.27-1.69-5.02-3.83-6.9-5.74-5.03-6.56-8.44-3.32-15.38-3.68,14.05,11.45,12.22,17.19,17.25,2.14,1.88,4.93,3.64,3.83,6.9-1.13,3.35-4.61,3.45-7.54,3.8-2.86,.34-9.86-.58-16.44-1.76,.85,.02,1.71-.02,2.57-.12Z"/>
  <path class="cls-1" d="M31.08,82.34c-.05,9.84,7.01,17.03,16.76,17.06,9.4,.03,17.18-7.69,17.14-17-.03-9.27-7.96-17.02-17.32-16.93-9.33,.08-16.53,7.41-16.58,16.87Zm54.36-.02c-.13,8.48,7.38,16.02,15.91,15.97,8.67-.05,15.87-7.43,15.7-16.09-.15-8.42-7.42-15.54-15.83-15.51-8.32,.03-15.65,7.29-15.78,15.63ZM54.51,2.48c18.93-3.64,37.72-3.16,55.82,3.96,21.63,8.51,33.72,24.82,37.95,47.53,3.16,16.96-1.62,31.82-10.54,45.89-2.13,3.36-4.18,6.82-5.86,10.41-3.24,6.94-2.42,10.35,3.32,15.38,2.14,1.88,4.93,3.63,3.83,6.9-1.13,3.34-4.61,3.44-7.54,3.79-.86,.1-1.72,.14-2.57,.12-5-.89-9.77-1.93-12.3-2.66-.16-.05-.33-.1-.49-.15,2.01,5.02,6.31,6.41,9.93,8.61,1.84,1.12,4.18,2.07,3.97,4.61-.18,2.28-2.49,2.94-4.27,3.76-7.3,3.4-14.14,3.47-20.62,1.33-4.14-1.67-7.9-3.67-10.82-5.71-.23-.16-.47-.33-.7-.5-3.31-2.45-4.01-1.88-4.87,1.75-.88,3.7-2.42,7.28-5.28,10.03-5.35,5.15-14.34,4.04-18.74-2.32-2.13-3.07-3.16-6.59-3.97-10.68-.03-.14-.05-.28-.08-.42-.39,.24-.78,.49-1.16,.73-3.16,1.96-7.06,4.29-11.96,6.53-1.7,.65-3.46,1.17-5.32,1.5-6.38,1.14-12.23,.06-17.8-2.85-4.27-2.23-4.21-4.51-.05-7.2,3.79-2.46,8.52-3.73,10.9-9.09-.17,.06-.34,.13-.5,.18-1.81,.64-4.63,1.43-7.81,2.19-2.42,.41-4.82,.51-7.26,.18-2.76-.37-5.95-.76-6.89-4-.83-2.85,1.57-4.49,3.37-6.18,7.12-6.69,7.84-10.68,2.83-19.25-4.59-9.19-11.27-17.26-13.7-27.48-.08-.33-.15-.67-.22-1C-.94,49.3,13.3,10.43,54.51,2.48Zm10.73,108.86c1.37,3.75,4.42,5.01,7.19,5.14,4.3,.02,7.02-1.28,9.11-3.9,.92-1.16,1.13-2.58,.41-3.67-.8-1.21-2.02-.38-3.06,.12-3.71,1.77-7.39,2.77-10.96-.38-.62-.55-1.57-.69-2.28-.06-.87,.75-.72,1.91-.41,2.75Zm57.73-56.43c.02-1.15-.98-1.58-1.68-2.17-1.28-1.1-2.71-1.96-4.45-1.33-.46,.17-1,1.02-.96,1.5,.22,2.35,2.63,1.32,3.86,2.27,.76,.59,2.15,.75,3.23-.27Zm-90.01,1.54c2.44-.69,3.13-3.07,1.1-3.54-2.46-.56-4.12,1.35-5.63,3.05-.17,.19-.06,.63-.11,1.43,.89-.14,1.34-.2,1.79-.29,.96-.21,1.91-.39,2.85-.65Z"/>
  <path class="cls-1" d="M91.54,77.97c.67,.8,1.21,1.57,1.89,2.21,1.14,1.08,2.39,1,3.51-.05,1.09-1.04,1.54-2.31,.25-3.43-3.74-3.25,.13-2.98,1.63-3.27,5.64-1.07,11.16,1.88,13.46,6.95,2.21,4.86,.86,10.31-3.42,13.86-4.46,3.69-10.12,3.94-14.66,.65-4.61-3.35-6.19-9.13-3.96-14.61,.31-.76,.8-1.44,1.3-2.31Z"/>
</svg>